<svg width="2174.425537" height="2174.425293" viewBox="0 0 2174.43 2174.43" fill="none" xmlns="http://www.w3.org/2000/svg" xmlns:xlink="http://www.w3.org/1999/xlink">
	<desc>
			Created with Pixso.
	</desc>
	<defs/>
	<path id="Vector" d="M1505.91 1087.21C1505.91 1318.45 1318.45 1505.91 1087.22 1505.91C855.97 1505.91 668.52 1318.45 668.52 1087.21C668.52 855.97 855.97 668.52 1087.22 668.52C1318.45 668.52 1505.91 855.97 1505.91 1087.21Z" fill="#A68E67" fill-opacity="1.000000" fill-rule="evenodd"/>
	<path id="C" d="M1087.21 611.41C1112.11 611.1 1121.43 595.54 1121.43 576.87C1121.43 551.98 1087.21 433.42 1087.21 433.42C1087.21 433.42 1052.98 551.98 1052.98 576.87C1052.98 595.54 1062.31 611.41 1087.21 611.41Z" fill="#A68E67" fill-opacity="1.000000" fill-rule="nonzero"/>
	<path id="C" d="M1563.01 1087.21C1563.32 1112.11 1578.88 1121.43 1597.55 1121.43C1622.44 1121.43 1741 1087.21 1741 1087.21C1741 1087.21 1622.44 1052.98 1597.55 1052.98C1578.88 1052.98 1563.01 1062.31 1563.01 1087.21Z" fill="#A68E67" fill-opacity="1.000000" fill-rule="nonzero"/>
	<path id="C" d="M1087.21 1563.01C1062.31 1563.32 1052.98 1578.88 1052.98 1597.55C1052.98 1622.44 1087.21 1741 1087.21 1741C1087.21 1741 1121.43 1622.44 1121.43 1597.55C1121.43 1578.88 1112.11 1563.01 1087.21 1563.01Z" fill="#A68E67" fill-opacity="1.000000" fill-rule="nonzero"/>
	<path id="C" d="M611.41 1087.21C611.1 1062.31 595.54 1052.98 576.87 1052.98C551.98 1052.98 433.42 1087.21 433.42 1087.21C433.42 1087.21 551.98 1121.43 576.87 1121.43C595.54 1121.43 611.41 1112.11 611.41 1087.21Z" fill="#A68E67" fill-opacity="1.000000" fill-rule="nonzero"/>
	<path id="C" d="M1269.29 647.63C1292.41 656.87 1306.99 646.07 1314.13 628.82C1323.66 605.82 1337.41 483.19 1337.41 483.19C1337.41 483.19 1260.41 579.62 1250.89 602.62C1243.74 619.87 1246.29 638.11 1269.29 647.63Z" fill="#A68E67" fill-opacity="1.000000" fill-rule="nonzero"/>
	<path id="C" d="M1526.79 1269.29C1517.55 1292.41 1528.35 1306.99 1545.6 1314.13C1568.6 1323.66 1691.24 1337.41 1691.24 1337.41C1691.24 1337.41 1594.8 1260.41 1571.8 1250.89C1554.55 1243.74 1536.32 1246.29 1526.79 1269.29Z" fill="#A68E67" fill-opacity="1.000000" fill-rule="nonzero"/>
	<path id="C" d="M905.13 1526.79C882.01 1517.55 867.43 1528.35 860.29 1545.6C850.76 1568.6 837.01 1691.24 837.01 1691.24C837.01 1691.24 914.01 1594.8 923.54 1571.8C930.68 1554.55 928.13 1536.32 905.13 1526.79Z" fill="#A68E67" fill-opacity="1.000000" fill-rule="nonzero"/>
	<path id="C" d="M647.63 905.13C656.87 882.01 646.07 867.43 628.82 860.29C605.82 850.76 483.18 837.01 483.18 837.01C483.18 837.01 579.62 914.01 602.62 923.54C619.87 930.68 638.1 928.13 647.63 905.13Z" fill="#A68E67" fill-opacity="1.000000" fill-rule="nonzero"/>
	<path id="C" d="M1423.65 750.77C1441.47 768.15 1459.08 763.75 1472.28 750.55C1489.88 732.95 1549.51 624.91 1549.51 624.91C1549.51 624.91 1441.47 684.54 1423.87 702.14C1410.67 715.34 1406.05 733.17 1423.65 750.77Z" fill="#A68E67" fill-opacity="1.000000" fill-rule="nonzero"/>
	<path id="C" d="M1423.65 1423.65C1406.27 1441.47 1410.67 1459.08 1423.87 1472.28C1441.47 1489.88 1549.51 1549.51 1549.51 1549.51C1549.51 1549.51 1489.88 1441.47 1472.28 1423.87C1459.08 1410.67 1441.25 1406.05 1423.65 1423.65Z" fill="#A68E67" fill-opacity="1.000000" fill-rule="nonzero"/>
	<path id="C" d="M750.77 1423.65C732.95 1406.27 715.34 1410.67 702.14 1423.87C684.54 1441.47 624.91 1549.51 624.91 1549.51C624.91 1549.51 732.95 1489.88 750.55 1472.28C763.75 1459.08 768.37 1441.25 750.77 1423.65Z" fill="#A68E67" fill-opacity="1.000000" fill-rule="nonzero"/>
	<path id="C" d="M750.77 750.77C768.15 732.95 763.75 715.34 750.55 702.14C732.95 684.54 624.91 624.91 624.91 624.91C624.91 624.91 684.54 732.95 702.14 750.55C715.35 763.75 733.17 768.37 750.77 750.77Z" fill="#A68E67" fill-opacity="1.000000" fill-rule="nonzero"/>
	<path id="C" d="M1526.79 905.13C1536.6 928.01 1554.55 930.68 1571.8 923.54C1594.8 914.01 1691.24 837.01 1691.24 837.01C1691.24 837.01 1568.6 850.76 1545.6 860.29C1528.35 867.43 1517.26 882.13 1526.79 905.13Z" fill="#A68E67" fill-opacity="1.000000" fill-rule="nonzero"/>
	<path id="C" d="M1269.29 1526.79C1246.41 1536.6 1243.74 1554.55 1250.89 1571.8C1260.41 1594.8 1337.41 1691.24 1337.41 1691.24C1337.41 1691.24 1323.66 1568.6 1314.13 1545.6C1306.99 1528.35 1292.29 1517.26 1269.29 1526.79Z" fill="#A68E67" fill-opacity="1.000000" fill-rule="nonzero"/>
	<path id="C" d="M647.63 1269.29C637.82 1246.41 619.87 1243.74 602.62 1250.89C579.62 1260.41 483.18 1337.41 483.18 1337.41C483.18 1337.41 605.82 1323.66 628.82 1314.13C646.07 1306.99 657.16 1292.29 647.63 1269.29Z" fill="#A68E67" fill-opacity="1.000000" fill-rule="nonzero"/>
	<path id="C" d="M905.13 647.63C928.01 637.82 930.68 619.87 923.54 602.62C914.01 579.62 837.01 483.19 837.01 483.19C837.01 483.19 850.76 605.82 860.29 628.82C867.43 646.07 882.13 657.16 905.13 647.63Z" fill="#A68E67" fill-opacity="1.000000" fill-rule="nonzero"/>
	<path id="C" d="M1180.04 620.56C1204.51 625.11 1216.69 611.67 1220.35 593.36C1225.19 568.94 1214.76 445.98 1214.76 445.98C1214.76 445.98 1158.06 555.58 1153.19 580C1149.56 598.31 1155.62 615.7 1180.04 620.56Z" fill="#A68E67" fill-opacity="1.000000" fill-rule="nonzero"/>
	<path id="C" d="M1553.87 1180.03C1549.31 1204.51 1562.75 1216.69 1581.06 1220.35C1605.48 1225.19 1728.44 1214.76 1728.44 1214.76C1728.44 1214.76 1618.84 1158.06 1594.42 1153.19C1576.11 1149.56 1558.72 1155.62 1553.87 1180.03Z" fill="#A68E67" fill-opacity="1.000000" fill-rule="nonzero"/>
	<path id="C" d="M994.38 1553.86C969.91 1549.31 957.72 1562.75 954.07 1581.06C949.22 1605.48 959.66 1728.44 959.66 1728.44C959.66 1728.44 1016.37 1618.84 1021.22 1594.42C1024.86 1576.11 1018.8 1558.72 994.38 1553.86Z" fill="#A68E67" fill-opacity="1.000000" fill-rule="nonzero"/>
	<path id="C" d="M620.56 994.38C625.11 969.91 611.67 957.72 593.36 954.07C568.94 949.22 445.98 959.66 445.98 959.66C445.98 959.66 555.58 1016.37 580 1021.22C598.31 1024.87 615.7 1018.81 620.56 994.38Z" fill="#A68E67" fill-opacity="1.000000" fill-rule="nonzero"/>
	<path id="C" d="M1351.55 691.6C1372.42 705.17 1388.83 697.42 1399.2 681.9C1413.03 661.2 1450.44 543.6 1450.44 543.6C1450.44 543.6 1356.11 623.16 1342.28 643.86C1331.91 659.39 1330.85 677.77 1351.55 691.6Z" fill="#A68E67" fill-opacity="1.000000" fill-rule="nonzero"/>
	<path id="C" d="M1482.82 1351.55C1469.25 1372.42 1477 1388.83 1492.53 1399.2C1513.22 1413.03 1630.82 1450.44 1630.82 1450.44C1630.82 1450.44 1551.26 1356.11 1530.56 1342.28C1515.04 1331.91 1496.65 1330.85 1482.82 1351.55Z" fill="#A68E67" fill-opacity="1.000000" fill-rule="nonzero"/>
	<path id="C" d="M822.87 1482.82C802 1469.25 785.59 1477 775.22 1492.52C761.39 1513.22 723.98 1630.82 723.98 1630.82C723.98 1630.82 818.31 1551.26 832.14 1530.56C842.52 1515.03 843.57 1496.65 822.87 1482.82Z" fill="#A68E67" fill-opacity="1.000000" fill-rule="nonzero"/>
	<path id="C" d="M691.6 822.87C705.17 802 697.42 785.59 681.9 775.22C661.2 761.39 543.6 723.98 543.6 723.98C543.6 723.98 623.17 818.31 643.86 832.14C659.39 842.51 677.77 843.57 691.6 822.87Z" fill="#A68E67" fill-opacity="1.000000" fill-rule="nonzero"/>
	<path id="C" d="M1482.82 822.87C1496.91 843.4 1515.03 842.52 1530.56 832.14C1551.26 818.31 1630.82 723.98 1630.82 723.98C1630.82 723.98 1513.22 761.39 1492.52 775.22C1477 785.59 1468.99 802.17 1482.82 822.87Z" fill="#A68E67" fill-opacity="1.000000" fill-rule="nonzero"/>
	<path id="C" d="M1351.55 1482.82C1331.02 1496.91 1331.91 1515.03 1342.28 1530.56C1356.11 1551.26 1450.44 1630.82 1450.44 1630.82C1450.44 1630.82 1413.03 1513.22 1399.2 1492.52C1388.83 1477 1372.25 1468.99 1351.55 1482.82Z" fill="#A68E67" fill-opacity="1.000000" fill-rule="nonzero"/>
	<path id="C" d="M691.6 1351.55C677.51 1331.02 659.39 1331.91 643.86 1342.28C623.16 1356.11 543.6 1450.44 543.6 1450.44C543.6 1450.44 661.2 1413.03 681.9 1399.2C697.42 1388.83 705.43 1372.25 691.6 1351.55Z" fill="#A68E67" fill-opacity="1.000000" fill-rule="nonzero"/>
	<path id="C" d="M822.87 691.6C843.4 677.51 842.51 659.39 832.14 643.86C818.31 623.16 723.98 543.6 723.98 543.6C723.98 543.6 761.39 661.2 775.22 681.9C785.59 697.42 802.17 705.43 822.87 691.6Z" fill="#A68E67" fill-opacity="1.000000" fill-rule="nonzero"/>
	<path id="C" d="M1553.86 994.38C1559.03 1018.74 1576.11 1024.87 1594.42 1021.22C1618.83 1016.37 1728.44 959.66 1728.44 959.66C1728.44 959.66 1605.48 949.22 1581.06 954.07C1562.75 957.72 1549.01 969.97 1553.86 994.38Z" fill="#A68E67" fill-opacity="1.000000" fill-rule="nonzero"/>
	<path id="C" d="M1180.04 1553.86C1155.68 1559.03 1149.56 1576.11 1153.19 1594.42C1158.06 1618.84 1214.76 1728.44 1214.76 1728.44C1214.76 1728.44 1225.19 1605.48 1220.35 1581.06C1216.69 1562.75 1204.44 1549.01 1180.04 1553.86Z" fill="#A68E67" fill-opacity="1.000000" fill-rule="nonzero"/>
	<path id="C" d="M620.55 1180.04C615.39 1155.68 598.31 1149.56 580 1153.19C555.58 1158.06 445.98 1214.76 445.98 1214.76C445.98 1214.76 568.94 1225.19 593.36 1220.35C611.67 1216.69 625.41 1204.44 620.55 1180.04Z" fill="#A68E67" fill-opacity="1.000000" fill-rule="nonzero"/>
	<path id="C" d="M994.38 620.56C1018.74 615.39 1024.87 598.31 1021.22 580C1016.37 555.58 959.66 445.98 959.66 445.98C959.66 445.98 949.22 568.94 954.07 593.36C957.72 611.67 969.97 625.41 994.38 620.56Z" fill="#A68E67" fill-opacity="1.000000" fill-rule="nonzero"/>
</svg>
