<svg width="80.000000" height="80.000000" viewBox="0 0 80 80" fill="none" xmlns="http://www.w3.org/2000/svg" xmlns:xlink="http://www.w3.org/1999/xlink">
	<desc>
			Created with Pixso.
	</desc>
	<defs>
		<clipPath id="clip395_422">
			<rect id="Frame" rx="-0.500000" width="79.000000" height="79.000000" transform="translate(0.500000 0.500000)" fill="white" fill-opacity="0"/>
		</clipPath>
	</defs>
	<rect id="Frame" rx="-0.500000" width="79.000000" height="79.000000" transform="translate(0.500000 0.500000)" fill="#FFFFFF" fill-opacity="0"/>
	<g clip-path="url(#clip395_422)">
		<path id="Vector" d="M30.76 80C20.54 80 10.32 80 0 80C0 53.29 0 26.7 0 0C26.7 0 53.29 0 80 0C80 26.7 80 53.29 80 80C65.16 80 50.21 80 35.38 80C35.82 79.89 36.15 79.89 36.59 79.78C43.84 78.79 49.89 75.49 54.72 69.89C58.68 65.16 60.98 59.78 61.31 53.62C61.42 51.42 61.2 49.23 60.98 47.03C60.98 46.26 60.98 45.71 61.75 45.38C62.63 45.05 63.07 44.28 63.07 43.4C63.07 42.85 63.07 42.41 63.07 41.86C63.07 41.64 63.18 41.31 63.4 41.2C64.06 40.65 64.39 40 64.39 39.23C64.39 38.02 64.39 36.92 64.39 35.71C64.5 34.28 63.95 33.18 62.41 32.85C62.41 32.63 62.41 32.41 62.41 32.3C62.85 31.75 63.18 31.09 63.62 30.65C66.48 28.57 68.35 25.82 69.01 22.41C69.23 21.42 68.57 20.65 67.69 20.87C67.03 20.98 66.81 21.42 66.59 22.08C65.93 24.72 64.61 26.92 62.41 28.57C60.87 29.67 59.89 30.98 59.89 32.85C58.79 32.85 57.8 32.85 56.81 32.85C56.81 30.87 56.81 29.01 56.81 27.14C57.14 27.14 57.47 27.14 57.69 27.14C59.56 27.14 60.65 26.04 60.65 24.17C60.65 23.84 60.65 23.51 60.65 23.18C60.65 21.86 59.56 20.76 58.24 20.65C56.37 20.54 54.61 20.54 52.74 20.65C51.53 20.65 50.76 21.42 50.54 22.52C50.32 23.4 50.32 24.39 50.54 25.27C50.76 26.48 51.86 27.14 53.07 27.25C53.51 27.25 53.84 27.25 54.28 27.25C54.28 29.23 54.28 31.09 54.28 32.96C53.29 32.96 52.3 32.96 51.31 32.96C50.76 30.43 50.54 30 48.79 28.79C41.86 23.62 42.96 12.96 50.87 9.34C51.53 9.01 52.3 8.79 53.07 8.57C53.73 8.35 54.06 7.69 53.84 7.03C53.62 6.48 53.07 6.04 52.41 6.26C45.71 7.69 41.31 14.28 42.19 21.09C42.41 22.52 42.85 23.84 43.18 25.16C43.18 25.16 43.18 25.16 43.07 25.16C42.96 25.16 42.85 25.05 42.74 25.05C37.47 23.18 32.19 22.85 26.7 24.06C10.54 27.69 0.76 44.72 6.15 60.43C9.56 70.43 16.48 76.59 26.7 79.23C27.91 79.56 29.34 79.78 30.76 80ZM58.57 5.82C57.91 5.93 57.36 6.37 57.25 6.92C57.14 7.58 57.58 8.02 58.35 8.24C62.74 9.34 65.6 12.19 66.92 16.48C67.14 17.36 67.8 17.8 68.46 17.58C69.12 17.36 69.34 16.7 69.12 15.82C67.91 11.64 65.38 8.57 61.42 6.81C60.54 6.37 59.56 6.15 58.57 5.82ZM57.03 2.3C57.03 1.86 57.14 1.53 57.03 1.09C56.92 0.43 56.48 0.1 55.82 0.1C55.16 0.1 54.72 0.54 54.72 1.09C54.61 1.86 54.61 2.52 54.72 3.29C54.72 3.95 55.16 4.39 55.82 4.39C56.48 4.39 56.92 3.95 57.03 3.4C57.03 2.96 57.03 2.63 57.03 2.3ZM67.14 9.12C67.47 9.01 67.69 9.01 67.8 8.9C68.46 8.24 69.23 7.69 69.78 6.92C70.1 6.48 69.89 5.93 69.45 5.6C69.01 5.27 68.46 5.27 68.02 5.6C67.47 6.04 66.92 6.59 66.48 7.14C66.26 7.47 66.26 8.02 66.37 8.35C66.48 8.68 66.92 8.9 67.14 9.12ZM73.07 18.24C72.74 18.24 72.3 18.24 71.97 18.24C71.31 18.35 70.98 18.68 70.98 19.34C70.98 20 71.31 20.43 71.97 20.54C72.74 20.65 73.51 20.65 74.17 20.54C74.83 20.43 75.16 20 75.16 19.34C75.16 18.68 74.72 18.35 74.06 18.24C73.73 18.13 73.4 18.24 73.07 18.24ZM44.5 9.12C44.83 8.79 45.27 8.57 45.38 8.24C45.49 7.91 45.49 7.36 45.27 7.03C44.83 6.48 44.39 6.04 43.84 5.49C43.29 5.05 42.63 5.05 42.19 5.6C41.75 6.04 41.75 6.59 42.19 7.14C42.63 7.69 43.18 8.13 43.62 8.57C43.84 8.9 44.06 9.01 44.5 9.12ZM68.79 33.51C69.12 33.29 69.56 33.07 69.67 32.74C69.78 32.41 69.78 31.75 69.56 31.53C69.23 30.98 68.68 30.54 68.13 30.1C67.58 29.67 67.03 29.67 66.48 30.1C66.04 30.54 65.93 31.2 66.48 31.75C66.92 32.19 67.36 32.74 67.91 33.07C68.02 33.18 68.35 33.29 68.79 33.51ZM38.68 20.54C39.01 20.54 39.34 20.54 39.56 20.54C40.32 20.43 40.76 20 40.76 19.34C40.76 18.68 40.32 18.24 39.56 18.13C38.9 18.13 38.24 18.13 37.58 18.13C36.92 18.13 36.59 18.57 36.48 19.23C36.37 19.78 36.92 20.32 37.47 20.43C37.91 20.54 38.24 20.54 38.68 20.54Z" fill="#FFFFFF" fill-opacity="0" fill-rule="nonzero"/>
		<path id="Vector" d="M30.76 79.99C29.45 79.78 28.02 79.56 26.7 79.23C16.37 76.59 9.45 70.43 6.15 60.43C0.76 44.72 10.54 27.58 26.81 23.95C32.3 22.74 37.58 23.07 42.85 24.94C42.96 24.94 43.07 25.05 43.18 25.05L43.29 25.05C42.96 23.73 42.52 22.3 42.3 20.98C41.31 14.28 45.71 7.69 52.63 5.93C53.29 5.82 53.84 6.15 54.06 6.7C54.28 7.36 53.95 7.91 53.29 8.24C52.52 8.46 51.75 8.68 51.09 9.01C43.18 12.63 42.08 23.29 49.01 28.46C50.76 29.78 50.98 30.1 51.53 32.63C52.52 32.63 53.51 32.63 54.5 32.63C54.5 30.76 54.5 28.9 54.5 26.92C54.06 26.92 53.73 26.92 53.29 26.92C52.08 26.92 50.98 26.15 50.76 24.94C50.65 24.06 50.54 23.07 50.76 22.19C50.98 21.09 51.86 20.43 52.96 20.32C54.83 20.21 56.59 20.21 58.46 20.32C59.78 20.32 60.76 21.53 60.87 22.85C60.87 23.18 60.87 23.51 60.87 23.84C60.87 25.82 59.78 26.81 57.91 26.81C57.58 26.81 57.36 26.81 57.03 26.81C57.03 28.79 57.03 30.65 57.03 32.52C58.02 32.52 59.01 32.52 60.1 32.52C60.1 30.54 61.09 29.34 62.63 28.24C64.83 26.7 66.26 24.5 66.81 21.75C66.92 21.2 67.25 20.65 67.91 20.54C68.79 20.43 69.45 21.2 69.23 22.08C68.46 25.49 66.59 28.24 63.84 30.32C63.29 30.76 62.96 31.42 62.63 31.97C62.52 32.08 62.63 32.3 62.63 32.52C64.17 32.96 64.61 33.95 64.61 35.38C64.61 36.59 64.61 37.69 64.61 38.9C64.61 39.78 64.28 40.43 63.62 40.87C63.4 40.98 63.29 41.31 63.29 41.53C63.29 42.08 63.29 42.52 63.29 43.07C63.29 43.95 62.85 44.72 61.97 45.05C61.09 45.38 61.09 45.93 61.2 46.7C61.31 48.9 61.64 51.09 61.53 53.29C61.2 59.45 58.9 64.94 54.94 69.56C50.21 75.16 44.06 78.35 36.81 79.45C36.37 79.56 36.04 79.56 35.6 79.67C33.84 79.99 32.3 79.99 30.76 79.99ZM7.14 50.43C10.98 50.43 14.61 50.43 18.35 50.43C18.35 50.1 18.35 49.89 18.46 49.67C18.79 46.59 19.23 43.62 19.56 40.54C19.56 40.32 19.34 39.99 19.12 39.78C17.69 38.68 16.15 37.69 14.72 36.7C14.17 36.26 13.62 35.71 12.96 35.16C9.34 39.67 7.36 44.72 7.14 50.43ZM12.96 68.13C14.83 66.26 16.92 64.72 19.12 63.4C19.34 63.29 19.45 62.85 19.45 62.63C19.23 60.65 18.79 58.68 18.57 56.59C18.46 55.38 18.35 54.06 18.24 52.85C14.5 52.85 10.76 52.85 7.03 52.85C7.47 58.68 9.34 63.73 12.96 68.13ZM48.02 52.85C47.58 56.26 47.03 59.56 46.7 62.85C46.7 63.07 46.81 63.29 46.92 63.4C49.23 64.72 51.2 66.26 53.18 68.13C56.81 63.62 58.79 58.57 59.01 52.85C58.68 52.85 58.46 52.85 58.24 52.85C54.72 52.85 51.31 52.85 48.02 52.85ZM34.28 77.47C36.04 77.03 37.47 76.04 38.57 74.83C41.09 71.97 42.52 68.57 43.62 64.94C43.73 64.5 43.51 64.39 43.18 64.28C42.19 63.95 41.2 63.51 40.21 63.18C38.24 62.63 36.26 62.3 34.28 62.19C34.28 67.36 34.28 72.41 34.28 77.47ZM34.28 40.98C36.26 41.2 41.53 39.99 43.4 39.01C43.51 38.9 43.62 38.57 43.62 38.35C43.07 36.81 42.52 35.16 41.86 33.73C40.76 31.2 39.34 28.9 37.03 27.25C36.26 26.7 35.27 26.26 34.28 25.71C34.28 30.87 34.28 35.93 34.28 40.98ZM31.75 62.19C28.57 62.41 25.6 63.07 22.74 64.28C22.3 64.5 22.19 64.72 22.41 65.16C23.29 67.36 24.17 69.56 25.16 71.64C26.04 73.4 27.25 75.05 28.9 76.26C29.78 76.92 30.65 77.36 31.64 77.58C31.75 72.41 31.75 67.36 31.75 62.19ZM31.75 25.82C30.54 26.04 29.56 26.59 28.68 27.36C27.25 28.46 26.26 29.89 25.38 31.42C24.06 33.73 23.07 36.15 22.41 38.79C25.49 40.1 28.57 40.87 31.86 40.98C31.75 35.93 31.75 30.87 31.75 25.82ZM34.28 43.51C34.28 45.93 34.28 48.24 34.28 50.43C38.02 50.43 41.64 50.43 45.49 50.43C45.16 47.36 44.83 44.28 44.39 41.09C41.09 42.52 37.69 43.29 34.28 43.51ZM31.75 43.51C28.24 43.29 24.94 42.52 21.75 41.2C21.09 44.28 20.76 47.36 20.76 50.54C24.5 50.54 28.13 50.54 31.86 50.54C31.75 48.13 31.75 45.82 31.75 43.51ZM34.28 59.89C37.8 60.1 41.09 60.76 44.5 62.3C44.83 59.12 45.16 56.04 45.6 52.96C41.75 52.96 38.02 52.96 34.39 52.96C34.28 55.27 34.28 57.47 34.28 59.89ZM21.64 62.19C25.05 60.76 28.35 59.99 31.75 59.78C31.75 57.36 31.75 55.16 31.75 52.85C28.02 52.85 24.39 52.85 20.54 52.85C20.87 56.04 21.2 59.01 21.64 62.19ZM62.08 35.16C57.91 35.16 53.73 35.16 49.67 35.16C49.67 36.48 49.67 37.8 49.67 39.01C53.84 39.01 57.91 39.01 62.08 39.01C62.08 37.8 62.08 36.48 62.08 35.16ZM40.32 76.48C44.61 75.27 48.35 73.07 51.64 69.78C49.78 68.35 47.91 66.92 45.93 65.38C44.72 69.56 43.07 73.4 40.32 76.48ZM14.61 33.4C16.37 35.16 18.13 36.48 20.21 37.69C21.42 33.62 23.07 29.99 25.71 26.81C21.42 28.02 17.8 30.21 14.61 33.4ZM25.6 76.59C24.61 74.94 23.4 73.29 22.41 71.42C21.53 69.67 20.87 67.69 20 65.71C18.02 66.81 16.15 68.24 14.5 69.89C17.8 73.07 21.42 75.27 25.6 76.59ZM58.79 48.68C58.57 48.79 58.57 48.79 58.46 48.79C55.27 50.21 52.19 49.12 50.54 46.04C50.43 45.82 50.21 45.6 50 45.6C49.01 45.16 48.57 44.39 48.46 43.4C48.46 42.96 48.46 42.41 48.46 41.97C48.46 41.75 48.35 41.53 48.24 41.42C47.91 40.98 47.47 40.54 47.03 39.99C46.59 40.1 46.48 40.32 46.59 40.87C46.92 43.18 47.25 45.49 47.58 47.69C47.69 48.68 47.69 49.67 47.8 50.65C51.53 50.65 55.27 50.65 59.01 50.65C58.9 49.89 58.9 49.23 58.79 48.68ZM45.93 37.69C46.92 37.36 47.47 36.92 47.25 35.71C47.25 35.49 47.25 35.16 47.25 34.94C47.25 34.06 47.69 33.29 48.57 32.96C49.34 32.74 49.23 32.3 49.01 31.75C48.79 31.42 48.57 31.09 48.24 30.76C46.04 28.9 43.51 27.69 40.87 26.81C40.76 26.81 40.54 26.81 40.32 26.81C43.07 29.99 44.61 33.73 45.93 37.69ZM60.65 41.53C57.36 41.53 54.17 41.53 50.98 41.53C50.98 42.08 50.98 42.63 50.98 43.18C54.28 43.18 57.47 43.18 60.65 43.18C60.65 42.63 60.65 42.08 60.65 41.53ZM55.82 22.74C55.05 22.74 54.39 22.74 53.62 22.74C52.96 22.74 53.07 23.18 53.07 23.51C53.07 23.95 52.85 24.61 53.62 24.61C55.05 24.61 56.59 24.61 58.02 24.61C58.79 24.61 58.57 23.95 58.57 23.51C58.57 23.07 58.57 22.74 57.91 22.74C57.25 22.74 56.59 22.74 55.82 22.74ZM58.35 45.71C56.59 45.71 54.94 45.71 53.29 45.71C54.28 47.47 57.36 47.36 58.35 45.71Z" fill="#145656" fill-opacity="1.000000" fill-rule="nonzero"/>
		<path id="Vector" d="M58.57 5.82C59.56 6.15 60.54 6.37 61.42 6.81C65.38 8.68 67.91 11.64 69.12 15.82C69.34 16.7 69.12 17.36 68.46 17.58C67.69 17.8 67.14 17.47 66.92 16.48C65.6 12.08 62.74 9.34 58.35 8.24C57.58 8.02 57.25 7.58 57.25 6.92C57.36 6.37 57.8 5.93 58.57 5.82Z" fill="#145656" fill-opacity="1.000000" fill-rule="nonzero"/>
		<path id="Vector" d="M57.03 2.3C57.03 2.63 57.03 2.96 57.03 3.29C56.92 3.95 56.48 4.39 55.82 4.39C55.16 4.39 54.72 4.06 54.61 3.4C54.5 2.63 54.5 1.97 54.61 1.2C54.72 0.54 55.05 0.21 55.71 0.21C56.37 0.21 56.81 0.65 56.92 1.2C57.03 1.53 57.03 1.97 57.03 2.3Z" fill="#145656" fill-opacity="1.000000" fill-rule="nonzero"/>
		<path id="Vector" d="M67.14 9.12C66.92 8.9 66.48 8.68 66.26 8.35C66.15 8.02 66.15 7.47 66.37 7.14C66.81 6.59 67.36 6.04 67.91 5.6C68.35 5.16 68.9 5.27 69.34 5.6C69.78 5.93 69.99 6.48 69.67 6.92C69.12 7.69 68.35 8.24 67.69 8.9C67.69 9.01 67.47 9.01 67.14 9.12Z" fill="#145656" fill-opacity="1.000000" fill-rule="nonzero"/>
		<path id="Vector" d="M73.07 18.24C73.4 18.24 73.73 18.24 74.06 18.24C74.72 18.35 75.05 18.68 75.16 19.34C75.16 19.99 74.83 20.43 74.17 20.54C73.4 20.65 72.63 20.65 71.97 20.54C71.31 20.43 70.98 19.99 70.98 19.34C70.98 18.68 71.42 18.24 71.97 18.24C72.3 18.13 72.74 18.24 73.07 18.24Z" fill="#145656" fill-opacity="1.000000" fill-rule="nonzero"/>
		<path id="Vector" d="M44.5 9.12C44.06 8.9 43.84 8.9 43.62 8.68C43.07 8.24 42.63 7.69 42.19 7.25C41.75 6.7 41.75 6.15 42.19 5.71C42.63 5.27 43.29 5.16 43.84 5.6C44.39 6.04 44.94 6.48 45.27 7.14C45.49 7.47 45.49 8.02 45.38 8.35C45.27 8.68 44.83 8.9 44.5 9.12Z" fill="#145656" fill-opacity="1.000000" fill-rule="nonzero"/>
		<path id="Vector" d="M68.79 33.51C68.35 33.29 68.13 33.18 67.91 33.07C67.47 32.63 66.92 32.19 66.48 31.75C66.04 31.2 66.04 30.54 66.48 30.11C66.92 29.67 67.58 29.67 68.13 30.11C68.68 30.54 69.12 30.98 69.56 31.53C69.78 31.86 69.78 32.41 69.67 32.74C69.56 33.07 69.12 33.29 68.79 33.51Z" fill="#145656" fill-opacity="1.000000" fill-rule="nonzero"/>
		<path id="Vector" d="M38.68 20.54C38.35 20.54 37.91 20.54 37.58 20.54C36.92 20.43 36.48 19.89 36.59 19.34C36.7 18.68 37.03 18.24 37.69 18.24C38.35 18.24 39.01 18.24 39.67 18.24C40.43 18.24 40.87 18.79 40.87 19.45C40.87 20.11 40.43 20.54 39.67 20.65C39.23 20.54 38.9 20.54 38.68 20.54Z" fill="#145656" fill-opacity="1.000000" fill-rule="nonzero"/>
		<path id="Vector" d="M7.14 50.43C7.47 44.72 9.34 39.67 12.96 35.16C13.51 35.71 14.06 36.26 14.72 36.7C16.15 37.8 17.69 38.79 19.12 39.78C19.34 39.89 19.56 40.32 19.56 40.54C19.23 43.62 18.79 46.59 18.46 49.67C18.46 49.89 18.46 50.21 18.35 50.43C14.5 50.43 10.87 50.43 7.14 50.43Z" fill="#FFFFFF" fill-opacity="0" fill-rule="nonzero"/>
		<path id="Vector" d="M12.96 68.13C9.34 63.62 7.47 58.68 7.14 52.85C10.87 52.85 14.5 52.85 18.35 52.85C18.46 54.06 18.46 55.38 18.68 56.59C18.9 58.57 19.23 60.54 19.56 62.63C19.56 62.85 19.45 63.29 19.23 63.4C16.92 64.72 14.83 66.26 12.96 68.13Z" fill="#FFFFFF" fill-opacity="0" fill-rule="nonzero"/>
		<path id="Vector" d="M48.02 52.85C51.31 52.85 54.83 52.85 58.24 52.85C58.46 52.85 58.68 52.85 59.01 52.85C58.68 58.57 56.7 63.62 53.18 68.13C51.31 66.26 49.23 64.72 46.92 63.4C46.81 63.29 46.59 63.07 46.7 62.85C47.03 59.56 47.47 56.26 48.02 52.85Z" fill="#FFFFFF" fill-opacity="0" fill-rule="nonzero"/>
		<path id="Vector" d="M34.28 77.47C34.28 72.3 34.28 67.36 34.28 62.19C36.37 62.3 38.35 62.63 40.21 63.18C41.2 63.51 42.19 63.84 43.18 64.28C43.51 64.39 43.73 64.5 43.62 64.94C42.52 68.57 41.09 71.97 38.57 74.83C37.36 76.15 36.04 77.03 34.28 77.47Z" fill="#FFFFFF" fill-opacity="0" fill-rule="nonzero"/>
		<path id="Vector" d="M34.28 40.98C34.28 35.93 34.28 30.98 34.28 25.6C35.27 26.15 36.26 26.48 37.03 27.14C39.34 28.79 40.65 31.09 41.86 33.62C42.52 35.16 43.07 36.7 43.62 38.24C43.73 38.46 43.51 38.79 43.4 38.9C41.53 40 36.26 41.09 34.28 40.98Z" fill="#FFFFFF" fill-opacity="0" fill-rule="nonzero"/>
		<path id="Vector" d="M31.75 62.19C31.75 67.25 31.75 72.3 31.75 77.47C30.65 77.25 29.78 76.81 29.01 76.15C27.36 74.94 26.15 73.4 25.27 71.53C24.28 69.45 23.4 67.25 22.52 65.05C22.41 64.72 22.41 64.39 22.85 64.17C25.71 63.07 28.68 62.41 31.75 62.19Z" fill="#FFFFFF" fill-opacity="0" fill-rule="nonzero"/>
		<path id="Vector" d="M31.75 25.82C31.75 30.87 31.75 35.93 31.75 40.98C28.46 40.87 25.38 40.1 22.3 38.79C22.96 36.15 23.95 33.73 25.27 31.42C26.15 29.89 27.25 28.46 28.57 27.36C29.56 26.59 30.54 26.04 31.75 25.82Z" fill="#FFFFFF" fill-opacity="0" fill-rule="nonzero"/>
		<path id="Vector" d="M34.28 43.51C37.69 43.29 41.09 42.63 44.5 41.09C44.83 44.28 45.16 47.25 45.6 50.43C41.75 50.43 38.13 50.43 34.39 50.43C34.28 48.13 34.28 45.93 34.28 43.51Z" fill="#FFFFFF" fill-opacity="0" fill-rule="nonzero"/>
		<path id="Vector" d="M31.75 43.51C31.75 45.93 31.75 48.13 31.75 50.54C28.02 50.54 24.39 50.54 20.65 50.54C20.65 47.36 21.09 44.39 21.64 41.2C24.94 42.52 28.24 43.29 31.75 43.51Z" fill="#FFFFFF" fill-opacity="0" fill-rule="nonzero"/>
		<path id="Vector" d="M34.28 59.89C34.28 57.58 34.28 55.27 34.28 52.96C38.02 52.96 41.64 52.96 45.49 52.96C45.16 56.04 44.83 59.12 44.39 62.3C41.09 60.76 37.69 60 34.28 59.89Z" fill="#FFFFFF" fill-opacity="0" fill-rule="nonzero"/>
		<path id="Vector" d="M21.64 62.19C21.31 59.01 20.98 55.93 20.54 52.85C24.39 52.85 28.02 52.85 31.75 52.85C31.75 55.16 31.75 57.36 31.75 59.78C28.35 60 25.05 60.76 21.64 62.19Z" fill="#FFFFFF" fill-opacity="0" fill-rule="nonzero"/>
		<path id="Vector" d="M62.08 35.16C62.08 36.48 62.08 37.8 62.08 39.01C57.91 39.01 53.84 39.01 49.67 39.01C49.67 37.69 49.67 36.48 49.67 35.16C53.73 35.16 57.8 35.16 62.08 35.16Z" fill="#FFFFFF" fill-opacity="0" fill-rule="nonzero"/>
		<path id="Vector" d="M40.32 76.48C43.07 73.29 44.72 69.56 45.93 65.38C47.91 66.92 49.67 68.24 51.64 69.78C48.35 73.07 44.61 75.27 40.32 76.48Z" fill="#FFFFFF" fill-opacity="0" fill-rule="nonzero"/>
		<path id="Vector" d="M14.61 33.4C17.8 30.21 21.42 28.02 25.71 26.81C23.07 30 21.42 33.62 20.21 37.69C18.13 36.48 16.26 35.05 14.61 33.4Z" fill="#FFFFFF" fill-opacity="0" fill-rule="nonzero"/>
		<path id="Vector" d="M25.6 76.59C21.53 75.38 17.8 73.18 14.61 70C16.26 68.24 18.13 66.92 20.1 65.82C20.87 67.8 21.53 69.67 22.52 71.53C23.4 73.18 24.5 74.83 25.6 76.59Z" fill="#FFFFFF" fill-opacity="0" fill-rule="nonzero"/>
		<path id="Vector" d="M58.79 48.68C58.79 49.34 58.9 49.89 58.9 50.43C55.16 50.43 51.42 50.43 47.69 50.43C47.58 49.45 47.58 48.46 47.47 47.47C47.14 45.16 46.81 42.85 46.48 40.65C46.37 40.11 46.59 39.89 46.92 39.78C47.36 40.32 47.8 40.76 48.13 41.2C48.24 41.31 48.35 41.64 48.35 41.75C48.35 42.19 48.35 42.74 48.35 43.18C48.35 44.28 48.79 45.05 49.89 45.38C50.11 45.49 50.32 45.71 50.43 45.82C52.08 48.9 55.05 50 58.35 48.57C58.57 48.68 58.68 48.68 58.79 48.68Z" fill="#FFFFFF" fill-opacity="0" fill-rule="nonzero"/>
		<path id="Vector" d="M45.93 37.69C44.72 33.73 43.18 30 40.21 26.81C40.43 26.81 40.65 26.81 40.76 26.81C43.51 27.69 46.04 28.9 48.13 30.76C48.46 30.98 48.68 31.42 48.9 31.75C49.12 32.3 49.23 32.63 48.46 32.96C47.58 33.29 47.14 33.95 47.14 34.94C47.14 35.16 47.14 35.49 47.14 35.71C47.47 36.81 46.81 37.36 45.93 37.69Z" fill="#FFFFFF" fill-opacity="0" fill-rule="nonzero"/>
		<path id="Vector" d="M60.65 41.53C60.65 42.08 60.65 42.63 60.65 43.18C57.47 43.18 54.28 43.18 50.98 43.18C50.98 42.63 50.98 42.08 50.98 41.53C54.28 41.53 57.47 41.53 60.65 41.53Z" fill="#FFFFFF" fill-opacity="0" fill-rule="nonzero"/>
		<path id="Vector" d="M55.82 22.74C56.59 22.74 57.25 22.74 58.02 22.74C58.57 22.74 58.68 23.07 58.68 23.51C58.68 23.95 58.9 24.61 58.13 24.61C56.7 24.61 55.16 24.61 53.73 24.61C52.96 24.61 53.29 23.95 53.18 23.51C53.18 23.18 53.07 22.74 53.73 22.74C54.39 22.74 55.05 22.74 55.82 22.74Z" fill="#FFFFFF" fill-opacity="0" fill-rule="nonzero"/>
		<path id="Vector" d="M58.35 45.71C57.36 47.36 54.28 47.36 53.29 45.71C54.94 45.71 56.7 45.71 58.35 45.71Z" fill="#FFFFFF" fill-opacity="0" fill-rule="nonzero"/>
	</g>
</svg>
