<svg width="79.737549" height="79.774445" viewBox="0 0 79.7375 79.7744" fill="none" xmlns="http://www.w3.org/2000/svg" xmlns:xlink="http://www.w3.org/1999/xlink">
	<desc>
			Created with Pixso.
	</desc>
	<defs/>
	<path id="Vector" d="M28.19 0.22C29.47 0.75 29.92 1.8 29.92 3.15C29.92 26.01 29.92 48.87 29.92 71.72C29.92 72.03 29.92 72.4 29.92 72.78C31.12 72.78 32.25 72.78 33.53 72.78C33.53 72.48 33.53 72.18 33.53 71.87C33.53 64.06 33.53 56.31 33.53 48.49C33.53 46.61 34.36 45.78 36.24 45.78C37.66 45.78 39.17 45.78 40.6 45.78C42.18 45.78 43 46.69 43 48.27C43 56.09 43 63.98 43 71.8C43 72.1 43 72.4 43 72.78C44.21 72.78 45.33 72.78 46.61 72.78C46.61 72.48 46.61 72.25 46.61 71.95C46.61 62.85 46.61 53.75 46.61 44.66C46.61 44.13 46.61 43.83 45.93 43.75C39.47 42.93 33.83 37.74 32.4 31.42C30.37 22.33 35.93 13.6 45.03 11.8C50.82 10.6 55.93 12.33 60.07 16.61C60.75 17.29 60.75 17.96 60.22 18.49C59.69 18.94 59.02 18.94 58.34 18.27C55.18 14.96 51.27 13.6 46.76 13.98C40.75 14.51 35.56 19.32 34.51 25.26C33.23 32.63 37.74 39.54 44.96 41.35C52.55 43.23 60.45 38.04 61.8 30.37C62.25 27.81 62.03 25.33 61.12 22.93C60.82 22.03 61.05 21.35 61.87 21.12C62.55 20.97 63.08 21.27 63.3 21.87C64.21 24.28 64.58 26.84 64.36 29.47C63.98 32.85 62.7 35.78 60.52 38.42C61.27 39.17 62.03 39.84 62.93 40.67C63.08 40.45 63.3 40.15 63.6 39.84C64.51 38.94 65.71 38.94 66.61 39.84C70.52 43.75 74.51 47.66 78.42 51.65C80.22 53.53 80.15 56.39 78.34 58.12C76.54 59.84 73.75 59.84 71.87 57.96C67.97 54.13 64.13 50.22 60.22 46.31C59.24 45.26 59.24 44.21 60.22 43.15C60.45 42.93 60.75 42.7 61.05 42.48C60.22 41.65 59.47 40.9 58.72 40.15C57.97 40.67 57.14 41.2 56.39 41.72C56.16 41.87 56.01 42.33 56.01 42.63C56.01 47.06 56.01 51.57 56.01 56.01C56.01 61.27 56.01 66.54 56.01 71.8C56.01 72.1 56.01 72.4 56.01 72.7C57.21 72.7 58.34 72.7 59.62 72.7C59.62 72.4 59.62 72.18 59.62 71.87C59.62 68.57 59.62 65.26 59.62 61.95C59.62 60.07 60.45 59.24 62.33 59.17C63.75 59.17 65.11 59.17 66.54 59.17C68.34 59.17 69.17 60 69.17 61.8C69.17 65.11 69.17 68.42 69.17 71.8C69.17 72.1 69.17 72.33 69.17 72.7C70.75 72.7 72.25 72.7 73.75 72.7C74.13 72.7 74.51 72.7 74.88 72.78C75.71 72.93 76.24 73.6 76.31 74.43C76.31 75.63 76.31 76.84 76.31 78.04C76.31 79.02 75.56 79.69 74.58 79.77C74.28 79.77 73.98 79.77 73.75 79.77C50.07 79.77 26.31 79.77 2.63 79.77C1.5 79.77 0.6 79.47 0 78.49C0 76.99 0 75.48 0 73.98C0.52 72.93 1.35 72.55 2.48 72.63C3.3 72.63 4.13 72.63 4.96 72.63C5.71 72.63 6.46 72.63 7.29 72.63C7.29 72.18 7.29 71.87 7.29 71.57C7.29 63.15 7.29 54.66 7.29 46.24C7.29 44.73 8.12 43.83 9.69 43.75C11.27 43.75 12.78 43.75 14.36 43.75C15.86 43.75 16.76 44.73 16.76 46.24C16.76 48.49 16.76 50.75 16.76 53C16.76 53.9 16.24 54.43 15.56 54.43C14.88 54.43 14.36 53.9 14.36 53C14.36 51.05 14.36 49.02 14.36 47.06C14.36 46.76 14.36 46.54 14.36 46.24C12.7 46.24 11.2 46.24 9.62 46.24C9.62 55.03 9.62 63.75 9.62 72.55C11.2 72.55 12.78 72.55 14.36 72.55C14.36 72.18 14.36 71.87 14.36 71.57C14.36 67.51 14.36 63.45 14.36 59.32C14.36 59.02 14.36 58.72 14.43 58.42C14.51 57.89 14.88 57.51 15.41 57.44C16.01 57.36 16.46 57.59 16.61 58.19C16.69 58.49 16.76 58.79 16.76 59.09C16.76 63.3 16.76 67.51 16.76 71.72C16.76 72.03 16.76 72.25 16.76 72.63C17.96 72.63 19.17 72.63 20.37 72.63C20.37 72.25 20.37 71.95 20.37 71.57C20.37 48.72 20.37 25.78 20.37 2.93C20.37 1.5 20.75 0.52 22.1 0C24.13 0.22 26.16 0.22 28.19 0.22ZM27.51 72.85C27.51 49.39 27.51 26.01 27.51 2.63C25.93 2.63 24.36 2.63 22.85 2.63C22.85 26.09 22.85 49.39 22.85 72.85C24.36 72.85 25.93 72.85 27.51 72.85ZM74.06 75.41C50.15 75.41 26.24 75.41 2.4 75.41C2.4 76.16 2.4 76.91 2.4 77.59C26.31 77.59 50.15 77.59 74.06 77.59C74.06 76.84 74.06 76.16 74.06 75.41ZM53.75 72.85C53.75 62.93 53.75 53.08 53.75 43.23C52.18 43.53 50.6 43.83 49.02 44.21C49.02 53.75 49.02 63.3 49.02 72.93C50.67 72.85 52.18 72.85 53.75 72.85ZM40.6 72.85C40.6 64.58 40.6 56.46 40.6 48.27C39.02 48.27 37.44 48.27 35.93 48.27C35.93 56.46 35.93 64.66 35.93 72.85C37.51 72.85 39.02 72.85 40.6 72.85ZM62.18 44.81C66.09 48.72 69.92 52.55 73.75 56.39C74.36 56.99 75.11 57.14 75.93 56.91C77.51 56.39 77.97 54.51 76.76 53.23C74.88 51.27 72.93 49.39 70.97 47.44C69.09 45.56 67.14 43.6 65.26 41.72C64.28 42.78 63.23 43.75 62.18 44.81ZM62.18 72.85C63.75 72.85 65.33 72.85 66.84 72.85C66.84 69.17 66.84 65.48 66.84 61.87C65.26 61.87 63.75 61.87 62.18 61.87C62.18 65.48 62.18 69.17 62.18 72.85Z" fill="#145656" fill-opacity="1.000000" fill-rule="nonzero"/>
</svg>
