<svg width="79.880371" height="79.854156" viewBox="0 0 79.8804 79.8542" fill="none" xmlns="http://www.w3.org/2000/svg" xmlns:xlink="http://www.w3.org/1999/xlink">
	<desc>
			Created with Pixso.
	</desc>
	<defs/>
	<path id="Vector" d="M66.89 79.85C65.75 79.85 64.6 79.85 63.45 79.85C62.97 79.39 62.41 79.02 62.06 78.47C61.31 77.29 59.37 76.41 58.04 76.81C57.02 77.1 56.16 76.91 55.39 76.16C54.81 75.58 54.16 75.06 53.47 74.43C44.97 77.58 36.25 77.72 27.45 74.83C27.41 74.97 27.37 75.06 27.37 75.12C27.25 76.77 27.04 76.97 25.39 76.97C17.54 76.97 9.7 76.97 1.85 77C1 77 0.33 76.81 0 75.95C0 71.47 0 67.02 0 62.54C0.04 62.43 0.1 62.35 0.12 62.25C0.66 60.02 1.97 58.95 4.27 58.95C5.04 58.95 5.83 58.93 6.6 58.95C7.14 58.95 7.22 58.7 7.04 58.27C6.95 58.08 6.83 57.91 6.72 57.72C3.89 52.79 2.22 47.5 1.72 41.83C1.2 35.72 2.1 29.83 4.39 24.14C4.68 23.41 5.04 22.75 4.33 22.08C4.2 21.97 4.16 21.75 4.16 21.58C4.12 20.22 4.06 18.87 4.14 17.54C4.16 17.18 4.64 16.72 5.02 16.6C5.31 16.5 5.87 16.68 6.1 16.93C6.35 17.18 6.43 17.68 6.45 18.08C6.5 19.06 6.47 20.04 6.47 21.02C11.39 21.02 16.18 21.02 21.04 21.02C21.04 20.68 21.04 20.41 21.04 20.12C21.04 17.47 21 14.81 21.06 12.16C21.08 11 21.02 10 19.64 9.62C17.6 11.12 16.08 11.12 13.91 9.56C11.87 11.12 10.37 11.12 8.29 9.68C6.27 10.02 6.35 11.43 6.45 12.87C6.45 12.95 6.45 13.04 6.45 13.1C6.37 13.89 5.93 14.35 5.25 14.35C4.56 14.35 4.1 13.87 4.06 13.08C4.04 12.43 4.02 11.79 4.06 11.12C4.08 10.68 3.91 10.5 3.54 10.31C2.02 9.56 1.22 8.31 1.22 6.58C1.22 5.43 1.22 4.29 1.22 3.14C1.22 1.14 2.41 0 4.43 0C10.62 0 16.81 0 23 0C25.25 0 25.91 0.45 26.75 2.54C26.91 2.5 27.08 2.43 27.25 2.39C34.06 0.04 41 -0.42 48.02 1.14C50.58 1.72 53.04 2.72 55.54 3.6C56.45 3.91 56.7 4.83 56.18 5.45C55.7 6.04 55.12 6 54.5 5.72C51.83 4.52 49.06 3.68 46.2 3.18C45.1 3 43.97 2.89 42.7 2.72C45.04 8.7 45.1 14.5 42.91 20.33C43.5 20.45 43.97 20.56 44.45 20.68C52.62 22.81 58.08 29.7 58.39 38.37C58.41 38.95 58.6 39.2 59.14 39.41C64.6 41.45 70.02 41.27 75.37 39C75.81 38.81 75.93 38.56 75.89 38.12C75.75 36.41 75.7 34.68 75.43 33C75.16 31.18 74.66 29.41 74.27 27.62C73.83 27.62 73.54 27.62 73.27 27.62C69.62 27.62 66 27.62 62.35 27.62C61.06 27.62 59.97 26.85 59.93 25.66C59.87 23.62 59.89 21.56 60.16 19.54C60.43 17.6 61.66 16.1 63.22 14.85C62.35 13.45 61.85 11.97 61.89 10.35C61.89 10.18 61.68 9.95 61.5 9.83C60.64 9.22 59.79 8.64 58.93 8.06C58.14 7.54 57.91 6.87 58.31 6.25C58.7 5.64 59.41 5.56 60.22 6.08C60.95 6.56 61.68 7.04 62.43 7.52C64.89 2.7 69.75 2.22 72.68 3.68C74.39 4.52 75.64 5.79 76.39 7.52C77.47 10.08 77.14 12.52 75.68 14.85C77.62 16.37 78.75 18.27 78.97 20.64C79.1 21.95 79.04 23.29 79.04 24.62C79.04 26.52 78.52 27.2 76.79 27.68C77.14 29.45 77.54 31.22 77.81 33.02C78.87 39.87 78.02 46.52 75.45 52.93C74.89 54.33 74.87 54.35 75.95 55.39C76.81 56.22 77.08 57.16 76.66 58.29C76.56 58.56 76.39 58.89 76.47 59.1C77.02 60.25 77.1 61.6 78.54 62.29C80.25 63.1 80.31 67.02 78.79 68.12C78.77 68.14 78.75 68.16 78.72 68.16C77.56 68.52 77.22 69.52 76.81 70.52C76.54 71.18 76.45 71.77 76.7 72.43C77.08 73.41 76.81 74.27 76.08 75C75.75 75.33 75.39 75.64 75.1 76C74.27 76.93 73.29 77.16 72.08 76.79C71.66 76.66 71.14 76.77 70.68 76.87C70.16 77 69.66 77.25 69.18 77.5C68.95 77.62 68.75 77.83 68.56 78.02C68 78.6 67.45 79.22 66.89 79.85ZM36.95 56.81C34.12 56.29 31.58 55.29 29.31 53.66C29 53.43 28.6 53.06 28.58 52.75C28.54 52.35 28.75 51.81 29.04 51.56C29.56 51.08 30.14 51.39 30.66 51.75C34.52 54.41 38.75 55.25 43.33 54.31C51.7 52.58 57.31 44.25 55.79 35.85C54.2 27.04 45.95 21.29 37.06 22.79C27.56 24.39 21.43 34.68 24.68 43.75C25.29 45.41 26.31 46.91 27.2 48.45C27.75 49.39 27.5 50.37 26.56 50.52C25.93 50.62 25.56 50.22 25.2 49.77C22.79 46.52 21.47 42.91 21.5 38.85C21.5 38.25 21.29 38 20.75 37.81C15.31 35.77 9.93 35.91 4.6 38.16C4.1 38.37 3.97 38.62 3.97 39.14C4.02 44.06 5.08 48.75 7.06 53.25C7.14 53.43 7.27 53.6 7.47 53.97C7.64 52.14 7.79 50.52 7.91 48.89C8.02 47.7 8.85 46.87 10.06 46.83C11.08 46.81 12.08 46.81 13.1 46.83C14.31 46.85 15.12 47.52 15.27 48.75C15.47 50.35 15.58 51.95 15.7 53.56C15.87 55.37 16.02 57.16 16.18 59.02C18.45 59.02 20.66 59.02 22.87 59.02C25.89 59.02 27.35 60.5 27.35 63.52C27.35 66.22 27.37 68.93 27.33 71.62C27.33 72.16 27.5 72.41 28 72.56C29.29 72.91 30.58 73.37 31.89 73.64C33.58 74 35.29 74.25 37.14 74.56C34.81 68.54 34.75 62.7 36.95 56.81ZM23.39 10.68C23.39 10.97 23.39 11.27 23.39 11.54C23.39 14.62 23.39 17.72 23.39 20.81C23.39 22.5 22.47 23.37 20.79 23.37C16.58 23.37 12.37 23.39 8.16 23.35C7.52 23.35 7.22 23.58 6.97 24.14C5.85 26.75 5.04 29.43 4.54 32.22C4.33 33.35 4.25 34.5 4.08 35.75C10.02 33.41 15.83 33.37 21.66 35.54C21.72 35.37 21.79 35.25 21.81 35.12C23.25 26.93 30.62 20.08 39.89 20.1C40.39 20.1 40.56 19.89 40.7 19.5C42.81 14 42.66 8.54 40.37 3.14C40.2 2.77 40.02 2.6 39.58 2.6C35.31 2.64 31.18 3.41 27.2 4.95C26.97 5.04 26.77 5.41 26.72 5.66C26.62 6.31 26.72 6.97 26.58 7.6C26.16 9.27 25.02 10.22 23.39 10.68ZM58.22 41.58C58.14 41.83 58.06 42.02 58.02 42.2C56.08 50.95 48.93 56.87 40.04 57.04C39.54 57.04 39.31 57.18 39.12 57.66C37.04 63.16 37.18 68.62 39.5 74.02C39.66 74.41 39.85 74.58 40.29 74.54C41.68 74.41 43.08 74.39 44.47 74.22C47.52 73.85 50.47 73.08 53.33 71.91C53.52 71.83 53.79 71.5 53.75 71.41C53.22 70.31 53.18 68.97 51.83 68.31C50.02 67.43 49.77 63.43 51.52 62.45C52.83 61.72 53.2 60.58 53.68 59.41C53.79 59.18 53.79 58.83 53.7 58.6C53.12 57.16 53.52 56.02 54.66 55.08C54.89 54.87 55.1 54.64 55.33 54.41C56.08 53.62 56.97 53.39 58.02 53.72C59.35 54.14 61.33 53.29 62.02 52.04C62.52 51.14 63.22 50.64 64.29 50.68C64.85 50.7 65.43 50.7 66 50.68C67.02 50.64 67.79 51.08 68.2 52C68.54 52.72 69.06 53.12 69.77 53.35C70.08 53.45 70.39 53.6 70.7 53.72C71.77 54.16 72.47 53.89 72.91 52.83C73.18 52.2 73.43 51.58 73.66 50.95C74.79 47.89 75.47 44.75 75.72 41.39C72.85 42.47 69.97 43.14 66.95 43.18C64 43.22 61.08 42.62 58.22 41.58ZM65.16 77.45C65.87 77.7 66.2 77.31 66.58 76.7C66.91 76.16 67.47 75.7 68.02 75.37C68.6 75 69.31 74.85 69.93 74.54C70.81 74.12 71.68 74.02 72.56 74.41C73.25 74.72 73.47 74.18 73.85 73.87C74.22 73.54 74.6 73.25 74.31 72.62C73.91 71.77 74.02 70.91 74.43 70.08C74.7 69.52 74.95 68.95 75.14 68.35C75.43 67.5 75.97 66.85 76.81 66.52C77.35 66.31 77.41 65.93 77.35 65.47C77.29 64.93 77.6 64.27 76.79 63.97C75.93 63.66 75.41 63 75.12 62.14C74.93 61.6 74.72 61.08 74.47 60.56C74.02 59.64 73.89 58.75 74.33 57.79C74.64 57.08 73.97 56.85 73.66 56.45C73.39 56.14 73.14 55.85 72.62 56.08C71.68 56.5 70.75 56.37 69.85 55.93C69.33 55.68 68.81 55.45 68.27 55.27C67.41 54.97 66.75 54.45 66.43 53.6C66.2 52.97 65.75 53 65.25 53.02C64.72 53.04 64.16 52.85 63.89 53.58C63.58 54.45 62.87 55 62 55.29C61.45 55.47 60.93 55.7 60.41 55.95C59.52 56.39 58.62 56.5 57.7 56.08C57.14 55.83 56.87 56.18 56.6 56.52C56.27 56.89 55.62 57.12 55.97 57.83C56.41 58.75 56.27 59.64 55.83 60.52C55.58 61.06 55.35 61.62 55.14 62.16C54.83 62.97 54.35 63.62 53.52 63.95C52.95 64.16 52.83 64.58 52.89 65.12C52.93 65.66 52.75 66.27 53.5 66.54C54.35 66.85 54.85 67.54 55.16 68.37C55.37 68.93 55.58 69.5 55.85 70.02C56.27 70.87 56.41 71.75 55.97 72.64C55.72 73.14 55.97 73.47 56.35 73.75C56.77 74.06 56.97 74.75 57.75 74.39C58.62 74 59.52 74.1 60.37 74.52C60.97 74.81 61.66 74.95 62.22 75.31C62.79 75.66 63.37 76.12 63.72 76.66C64.12 77.27 64.41 77.68 65.16 77.45ZM24.95 74.54C24.95 74.22 24.95 74 24.95 73.77C24.95 70.22 24.95 66.7 24.95 63.16C24.95 61.81 24.5 61.35 23.12 61.35C16.83 61.35 10.54 61.35 4.25 61.35C2.89 61.35 2.43 61.81 2.43 63.18C2.43 66.72 2.43 70.25 2.43 73.79C2.43 74.04 2.43 74.29 2.43 74.52C4.64 74.52 6.75 74.52 8.89 74.52C8.89 72.41 8.89 70.37 8.89 68.31C8.89 67.2 9.35 66.77 10.45 66.75C12.58 66.75 14.72 66.75 16.85 66.75C18.06 66.75 18.47 67.18 18.47 68.41C18.47 70.18 18.47 71.95 18.47 73.7C18.47 73.97 18.5 74.25 18.52 74.52C20.7 74.54 22.79 74.54 24.95 74.54ZM74 16.6C73.72 16.77 73.5 16.91 73.25 17.06C70.79 18.41 68.31 18.43 65.81 17.14C64.75 16.58 64.72 16.54 63.91 17.45C63.43 18 63.02 18.6 62.72 19.27C61.91 21.2 62.33 23.25 62.25 25.22C67.1 25.22 71.85 25.22 76.58 25.22C76.58 23.64 76.68 22.12 76.56 20.6C76.39 18.89 75.45 17.56 74 16.6ZM64.25 10.41C64.18 13.22 66.5 15.62 69.37 15.7C72.18 15.79 74.6 13.41 74.64 10.56C74.68 7.79 72.37 5.39 69.56 5.31C66.77 5.22 64.33 7.56 64.25 10.41ZM13.79 58.93C13.52 55.62 13.25 52.39 12.95 49.16C12.02 49.16 11.16 49.16 10.27 49.16C10.12 50.83 9.97 52.43 9.85 54.06C9.7 55.66 9.58 57.29 9.45 58.93C10.95 58.93 12.33 58.93 13.79 58.93ZM16.04 74.54C16.04 72.7 16.04 70.97 16.04 69.22C14.45 69.22 12.91 69.22 11.37 69.22C11.37 71.04 11.37 72.79 11.37 74.54C12.95 74.54 14.47 74.54 16.04 74.54ZM9.35 2.37C9.35 3.87 9.31 5.33 9.37 6.77C9.41 7.7 10.18 8.33 11.08 8.33C11.95 8.33 12.7 7.7 12.75 6.81C12.81 5.35 12.77 3.87 12.77 2.37C11.6 2.37 10.52 2.37 9.35 2.37ZM18.54 2.39C17.35 2.39 16.27 2.39 15.12 2.39C15.12 3.85 15.08 5.27 15.14 6.68C15.18 7.7 15.97 8.37 16.93 8.33C17.85 8.29 18.52 7.58 18.54 6.58C18.56 5.2 18.54 3.83 18.54 2.39ZM7 2.33C6.06 2.33 5.22 2.33 4.39 2.33C3.81 2.33 3.56 2.62 3.56 3.2C3.58 4.33 3.54 5.43 3.56 6.56C3.58 7.58 4.22 8.27 5.16 8.33C6.14 8.39 6.93 7.72 6.97 6.7C7.04 5.27 7 3.85 7 2.33ZM20.89 2.33C20.89 3.83 20.85 5.22 20.91 6.62C20.95 7.66 21.7 8.33 22.66 8.31C23.62 8.29 24.29 7.56 24.31 6.52C24.33 5.39 24.31 4.29 24.31 3.16C24.31 2.62 24.1 2.31 23.54 2.31C22.7 2.33 21.85 2.33 20.89 2.33Z" fill="#145656" fill-opacity="1.000000" fill-rule="nonzero"/>
</svg>
