<svg width="79.833740" height="79.833679" viewBox="0 0 79.8337 79.8337" fill="none" xmlns="http://www.w3.org/2000/svg" xmlns:xlink="http://www.w3.org/1999/xlink">
	<desc>
			Created with Pixso.
	</desc>
	<defs/>
	<path id="Vector" d="M79.83 76.67C79.33 78.17 78.33 79.5 76.67 79.83C76.34 79.83 76 79.83 75.67 79.83C54.05 79.83 32.59 79.83 10.97 79.83C5.15 79.83 0 74.84 0 69.02C0 63.2 3.82 58.71 9.64 57.54C9.81 57.54 9.81 57.54 9.97 57.54C9.97 56.21 9.97 54.88 9.97 53.38C9.64 53.38 9.48 53.22 9.14 53.22C7.81 52.88 6.81 51.72 6.81 50.39C6.81 49.39 6.81 48.56 6.81 47.56C6.98 45.73 8.31 44.57 10.14 44.57C10.47 44.57 10.81 44.57 11.14 44.57C11.14 43.24 11.14 41.74 11.14 40.41C10.97 40.41 10.64 40.41 10.31 40.41C8.48 40.41 7.15 39.08 7.15 37.25C7.15 36.42 7.15 35.59 7.15 34.76C7.15 32.93 8.48 31.6 10.31 31.6C15.63 31.6 20.79 31.6 26.11 31.6C27.77 31.6 29.1 32.93 29.27 34.59C29.43 35.75 29.27 36.92 29.27 38.25C29.43 38.25 29.77 38.25 29.93 38.25C31.76 38.25 33.09 39.58 33.26 41.58C33.26 42.41 33.26 43.24 33.26 44.07C33.26 45.9 31.93 47.23 29.93 47.23C29.6 47.23 29.27 47.23 28.93 47.23C28.93 48.56 28.93 49.89 28.93 51.39C29.27 51.39 29.43 51.55 29.77 51.55C31.1 51.89 32.09 53.22 32.09 54.55C32.09 55.05 32.09 55.71 32.09 56.21C32.09 56.71 32.09 57.21 32.09 57.87C32.59 57.87 32.93 57.87 33.43 57.87C33.43 56.88 33.43 56.04 33.43 55.05C33.43 54.05 33.76 53.05 34.42 52.39C34.59 52.22 34.59 51.89 34.59 51.72C34.59 50.39 34.42 49.06 34.42 47.9C34.42 46.56 35.25 45.73 36.42 45.23C36.92 45.07 37.08 44.74 37.25 44.4C38.75 40.24 40.41 35.92 41.91 31.76C42.74 29.77 43.74 27.94 45.57 26.61C43.4 23.11 43.9 20.62 47.23 18.79C46.73 17.79 46.23 16.79 45.73 15.8C45.57 15.46 45.4 15.13 45.23 14.63C44.9 13.97 45.07 13.3 45.73 12.97C46.4 12.64 47.06 12.8 47.4 13.47C48.06 14.63 48.73 15.96 49.23 17.13C49.89 18.46 49.89 18.46 51.55 18.12C50.89 14.46 50.39 10.81 49.72 7.15C47.56 6.81 46.73 7.31 45.73 9.14C45.4 9.81 44.74 9.97 44.24 9.81C43.74 9.64 43.4 8.98 43.57 8.31C44.07 6.32 46.07 4.82 48.06 4.65C48.73 4.65 49.23 4.65 49.89 4.65C50.72 1.99 52.39 0.66 54.71 0C55.38 0 56.21 0 56.88 0C57.04 0 57.21 0.16 57.38 0.16C59.04 0.66 60.54 1.49 61.2 3.16C61.7 4.32 62.37 4.49 63.36 4.49C65.69 4.49 67.52 5.98 68.19 8.14C68.52 9.48 68.35 10.81 67.69 12.14C66.52 14.13 65.53 16.29 64.53 18.29C66.02 19.12 67.02 20.12 67.35 21.78C67.69 23.45 67.19 24.78 66.19 26.11C68.52 28.44 68.85 28.77 70.02 31.93C71.18 35.25 72.51 38.58 73.67 41.91C74.01 42.57 74.17 43.4 74.51 44.07C74.84 44.9 74.67 45.57 73.84 45.9C73.18 46.23 72.51 45.9 72.18 45.07C72.18 44.9 72.01 44.74 72.01 44.57C70.35 40.24 68.85 35.92 67.19 31.76C66.52 30.1 65.53 28.77 64.03 27.94C63.7 27.77 63.36 27.6 63.03 27.6C58.04 27.6 53.22 27.6 48.23 27.6C47.9 27.6 47.56 27.77 47.23 27.94C45.73 28.93 44.74 30.27 44.07 32.09C43.07 34.76 42.07 37.42 41.08 39.91C40.41 41.58 39.91 43.07 39.25 44.74C39.58 44.74 39.91 44.74 40.24 44.74C44.57 44.74 48.73 44.74 53.05 44.74C54.88 44.74 56.21 46.07 56.21 47.9C56.21 48.56 56.21 49.39 56.21 50.06C56.21 51.06 55.88 52.05 55.21 52.72C55.05 52.88 55.05 53.05 55.05 53.22C55.05 54.05 55.21 54.88 55.21 55.55C55.21 56.21 55.21 56.88 55.21 57.54C55.38 57.54 55.55 57.54 55.71 57.54C59.37 57.54 62.86 57.54 66.52 57.54C66.86 57.54 67.35 57.54 67.69 57.38C71.18 56.54 73.51 53.88 73.67 50.06C73.67 49.23 74.17 48.73 74.84 48.73C75.5 48.73 76 49.23 76 50.06C76 52.22 75.34 54.22 74.01 56.04C73.67 56.54 73.34 56.88 72.84 57.54C73.84 57.54 74.67 57.54 75.5 57.54C77.17 57.54 78.5 58.37 79.33 59.87C79.5 60.2 79.66 60.54 79.83 60.7C79.83 61.37 79.83 62.03 79.83 62.53C79 65.03 77.17 66.02 74.51 65.86C73.84 65.86 73.18 65.86 72.34 65.86C72.34 67.85 72.34 69.68 72.34 71.68C72.68 71.68 72.84 71.68 73.18 71.68C74.01 71.68 74.84 71.68 75.67 71.68C77.83 71.85 79 73.01 79.66 75.01C79.83 75.5 79.83 76 79.83 76.67ZM70.02 71.68C70.02 69.68 70.02 67.85 70.02 65.86C69.85 65.86 69.68 65.86 69.52 65.86C50.06 65.86 30.76 65.86 11.3 65.86C9.64 65.86 8.31 67.02 8.31 68.69C8.31 70.35 9.64 71.68 11.3 71.68C12.14 71.68 12.97 71.68 13.8 71.68C14.8 71.68 15.13 72.18 15.13 72.84C15.13 73.51 14.63 74.01 13.8 74.01C12.97 74.01 11.97 74.01 11.14 74.01C8.98 73.84 7.31 72.84 6.48 70.85C5.65 68.85 5.82 67.02 7.31 65.36C8.48 63.86 10.14 63.53 11.97 63.53C32.93 63.53 54.05 63.53 75.01 63.53C75.34 63.53 75.84 63.53 76.17 63.53C77 63.36 77.67 62.7 77.67 61.87C77.67 61.03 77 60.2 76.17 60.2C75.84 60.2 75.5 60.2 75.17 60.2C61.7 60.2 48.39 60.2 34.92 60.2C26.94 60.2 18.79 60.2 10.81 60.2C5.32 60.2 1.33 65.69 2.49 71.01C3.65 74.84 7.15 77.5 11.47 77.5C32.59 77.5 53.88 77.5 75.01 77.5C76.5 77.5 77.5 76.83 77.5 75.67C77.5 74.51 76.67 73.84 75.01 73.84C56.71 73.84 38.41 73.84 19.95 73.84C19.62 73.84 19.45 73.84 19.12 73.84C18.46 73.67 18.12 73.34 18.12 72.68C18.12 72.01 18.46 71.68 19.12 71.51C19.45 71.51 19.79 71.51 20.12 71.51C36.42 71.51 52.55 71.51 68.85 71.51C69.18 71.68 69.68 71.68 70.02 71.68ZM55.88 17.79C56.38 17.79 56.71 17.79 57.04 17.79C57.54 17.79 57.87 17.62 57.87 17.13C57.87 16.46 58.04 15.63 58.21 14.96C58.71 12.14 59.21 9.48 59.54 6.65C59.7 5.15 59.04 3.82 57.71 2.99C56.38 2.16 54.88 2.16 53.55 3.16C52.22 3.99 51.72 5.32 51.89 6.81C52.39 9.81 52.88 12.97 53.38 15.96C53.55 16.63 53.38 17.46 53.88 17.62C54.38 17.96 55.21 17.79 55.88 17.79ZM55.88 20.12C53.55 20.12 51.39 20.12 49.06 20.12C47.56 20.12 46.56 21.12 46.56 22.45C46.56 23.78 47.73 24.78 49.06 24.78C53.55 24.78 58.04 24.78 62.53 24.78C63.36 24.78 64.03 24.44 64.53 23.78C65.03 23.11 65.19 22.28 64.86 21.28C64.36 20.45 63.7 19.95 62.7 19.95C60.37 20.12 58.21 20.12 55.88 20.12ZM18.12 37.92C20.62 37.92 23.11 37.92 25.61 37.92C26.61 37.92 26.77 37.58 26.77 36.75C26.77 36.09 26.77 35.42 26.77 34.92C26.77 34.26 26.44 33.92 25.77 33.92C20.62 33.92 15.63 33.92 10.47 33.92C9.81 33.92 9.48 34.26 9.48 35.09C9.48 35.59 9.48 36.25 9.48 36.75C9.48 37.92 9.81 38.08 10.81 38.08C13.13 37.92 15.63 37.92 18.12 37.92ZM45.4 46.73C42.91 46.73 40.41 46.73 37.92 46.73C37.08 46.73 36.75 47.06 36.75 47.9C36.75 48.39 36.75 49.06 36.75 49.56C36.75 50.56 37.08 50.89 38.08 50.89C40.58 50.89 42.91 50.89 45.4 50.89C47.9 50.89 50.39 50.89 52.88 50.89C53.88 50.89 54.22 50.56 54.22 49.56C54.22 49.06 54.22 48.56 54.22 48.06C54.22 47.06 53.88 46.73 52.88 46.73C50.39 46.73 47.9 46.73 45.4 46.73ZM17.62 46.73C15.13 46.73 12.64 46.73 10.14 46.73C9.31 46.73 8.98 47.06 8.98 47.9C8.98 48.39 8.98 48.89 8.98 49.39C8.98 50.56 9.14 50.89 10.47 50.89C14.63 50.89 18.96 50.89 23.11 50.89C23.78 50.89 24.44 50.89 25.11 50.89C25.94 50.89 26.27 50.56 26.27 49.72C26.27 49.06 26.27 48.56 26.27 47.9C26.27 46.9 25.94 46.73 25.11 46.73C22.61 46.73 20.12 46.73 17.62 46.73ZM22.12 40.24C19.62 40.24 17.13 40.24 14.63 40.24C13.63 40.24 13.47 40.58 13.47 41.41C13.47 41.91 13.47 42.41 13.47 42.91C13.47 44.24 13.63 44.4 14.96 44.4C18.79 44.4 22.61 44.4 26.44 44.4C27.44 44.4 28.6 44.4 29.6 44.4C30.43 44.4 30.76 44.07 30.76 43.24C30.76 42.74 30.76 42.07 30.76 41.58C30.76 40.58 30.43 40.24 29.43 40.24C26.94 40.24 24.44 40.24 22.12 40.24ZM20.95 53.38C18.46 53.38 15.8 53.38 13.3 53.38C12.47 53.38 12.14 53.72 12.14 54.38C12.14 55.05 12.14 55.71 12.14 56.38C12.14 57.04 12.47 57.54 13.3 57.54C13.63 57.54 13.97 57.54 14.3 57.54C18.96 57.54 23.61 57.54 28.27 57.54C29.43 57.54 29.77 57.38 29.77 56.04C29.77 55.55 29.77 55.05 29.77 54.71C29.77 53.72 29.43 53.38 28.44 53.38C25.94 53.38 23.45 53.38 20.95 53.38ZM44.4 53.38C41.91 53.38 39.41 53.38 36.92 53.38C36.09 53.38 35.75 53.72 35.75 54.55C35.75 55.05 35.75 55.71 35.75 56.21C35.75 57.38 35.92 57.54 37.08 57.54C41.08 57.54 44.9 57.54 48.89 57.54C49.89 57.54 50.89 57.54 52.05 57.54C52.72 57.54 53.05 57.21 53.05 56.54C53.05 55.88 53.05 55.21 53.05 54.55C53.05 53.72 52.72 53.38 51.89 53.38C49.39 53.38 46.9 53.38 44.4 53.38ZM62.03 6.65C61.37 10.47 60.7 14.13 60.2 17.79C61.87 17.96 61.87 17.96 62.53 16.63C62.86 15.96 63.2 15.3 63.53 14.63C64.19 13.3 65.03 11.8 65.69 10.47C66.52 8.81 65.69 7.15 63.86 6.81C63.36 6.65 62.7 6.65 62.03 6.65Z" fill="#145656" fill-opacity="1.000000" fill-rule="nonzero"/>
</svg>
