<svg width="79.840332" height="79.840332" viewBox="0 0 79.8403 79.8403" fill="none" xmlns="http://www.w3.org/2000/svg" xmlns:xlink="http://www.w3.org/1999/xlink">
	<desc>
			Created with Pixso.
	</desc>
	<defs/>
	<path id="Vector" d="M51.17 79.84C43.67 79.84 36.24 79.84 28.74 79.84C27.22 78.96 26.74 78.16 27.06 76.8C27.54 74.81 28.18 72.73 28.74 70.73C29.06 69.62 29.94 69.06 31.05 69.06C31.45 69.06 31.85 69.06 32.33 69.06C32.65 66.82 32.89 64.67 33.21 62.51C32.89 62.51 32.57 62.51 32.33 62.51C27.94 62.51 23.55 62.51 19.16 62.51C18.52 62.51 18.12 62.75 17.8 63.31C15.88 66.66 13.97 70.01 11.97 73.37C10.53 75.76 8.38 76.8 5.58 76.48C3.03 76.16 1.35 74.73 0.39 72.33C0.23 71.93 0.15 71.53 0 71.21C0 70.49 0 69.78 0 69.06C1.11 66.74 2.31 64.43 3.43 62.19C2.95 61.87 2.39 61.55 1.91 61.15C0.87 60.11 0.39 58.92 0 57.64C0 42.23 0 26.9 0 11.49C0.07 11.41 0.07 11.33 0.15 11.25C0.95 8.3 3.11 6.7 6.14 6.7C9.26 6.7 12.29 6.7 15.4 6.7C15.64 6.7 15.96 6.7 16.28 6.7C16.28 5.42 16.28 4.31 16.28 3.19C16.36 1.27 17.64 0 19.48 0C33.13 0 46.78 0 60.43 0C60.75 0 61.07 0 61.39 0.07C62.83 0.47 63.63 1.59 63.63 3.27C63.63 4.39 63.63 5.5 63.63 6.62C63.79 6.7 63.87 6.7 63.87 6.7C67.22 6.7 70.65 6.7 74.01 6.7C77.28 6.7 79.84 9.26 79.84 12.53C79.84 27.22 79.84 41.91 79.84 56.6C79.84 57.16 79.76 57.72 79.6 58.28C78.8 60.83 76.56 62.43 73.61 62.43C64.99 62.43 56.28 62.43 47.66 62.43C47.34 62.43 47.1 62.43 46.7 62.43C46.94 64.51 47.18 66.34 47.5 68.26C47.5 68.5 47.58 68.74 47.66 68.98C47.9 68.98 48.06 68.98 48.3 68.98C50.29 68.98 50.85 69.46 51.41 71.37C51.81 72.89 52.29 74.49 52.69 76C53.17 78 52.85 78.88 51.17 79.84ZM18.68 17.16C18.92 17 19.08 16.92 19.24 16.84C23.15 14.61 27.38 13.89 31.77 14.93C38.4 16.44 42.87 20.43 45.03 26.82C47.18 33.21 45.9 39.2 41.43 44.23C36.64 49.58 30.65 51.33 23.63 49.74C23.39 49.66 22.99 49.74 22.91 49.9C22.27 50.85 21.71 51.89 21.07 53.01C21.55 53.01 21.79 53.01 22.11 53.01C31.21 53.01 40.23 53.01 49.34 53.01C49.66 53.01 50.05 53.01 50.29 53.09C50.85 53.25 51.09 53.65 51.09 54.21C51.09 54.77 50.85 55.16 50.29 55.32C49.98 55.4 49.58 55.4 49.18 55.4C40.31 55.4 31.53 55.4 22.67 55.4C22.35 55.4 22.03 55.4 21.79 55.4C21.87 55.48 21.87 55.48 21.95 55.56C21.23 57 20.43 58.44 19.64 59.96C19.88 59.96 20.04 59.96 20.27 59.96C38.08 59.96 55.88 59.96 73.69 59.96C76 59.96 77.44 58.52 77.44 56.12C77.44 41.67 77.44 27.22 77.44 12.77C77.44 10.37 76 8.94 73.61 8.94C70.49 8.94 67.46 8.94 64.35 8.94C64.11 8.94 63.87 8.94 63.63 8.94C63.63 9.74 63.63 10.45 63.63 11.25C63.95 11.25 64.27 11.25 64.51 11.25C67.38 11.25 70.25 11.25 73.05 11.25C74.41 11.25 75.12 11.89 75.12 13.33C75.12 26.66 75.12 40 75.12 53.33C75.12 54.61 74.49 55.32 73.21 55.32C67.38 55.32 61.55 55.32 55.64 55.32C54.85 55.32 54.29 54.85 54.29 54.13C54.29 53.41 54.85 52.93 55.72 52.93C57.24 52.93 58.76 52.93 60.35 52.93C60.59 52.93 60.91 52.93 61.15 52.93C61.15 39.12 61.15 25.38 61.15 11.65C47.02 11.65 32.89 11.65 18.76 11.65C18.68 13.57 18.68 15.32 18.68 17.16ZM15.72 45.42C15.56 45.26 15.48 45.18 15.4 45.02C11.97 41.43 10.21 37.2 10.29 32.25C10.29 31.05 10.53 29.78 10.69 28.58C10.77 27.86 11.41 27.38 12.13 27.54C12.85 27.7 13.17 28.26 13.01 28.98C13.01 29.14 12.93 29.3 12.93 29.46C12.85 31.13 12.61 32.89 12.85 34.57C13.97 43.11 21.87 49.1 30.33 47.82C39.04 46.54 44.95 38.4 43.43 29.7C41.91 20.99 33.13 15.24 24.59 17.32C20.59 18.28 17.56 20.51 15.24 23.87C14.61 24.75 13.97 24.99 13.33 24.59C12.69 24.11 12.61 23.47 13.33 22.51C14.13 21.47 15.01 20.51 15.88 19.48C16.04 19.24 16.36 19 16.36 18.84C16.36 17.16 16.36 15.48 16.36 13.81C13.25 13.81 10.21 13.81 7.18 13.81C7.18 26.9 7.18 40 7.18 53.01C8.86 53.25 8.86 53.25 9.58 51.89C9.74 51.57 9.9 51.25 10.13 50.93C10.85 49.66 11.89 49.02 13.41 49.02C13.65 49.02 13.89 48.86 14.05 48.7C14.53 47.58 15.16 46.46 15.72 45.42ZM63.63 13.73C63.63 26.82 63.63 39.92 63.63 52.93C66.74 52.93 69.7 52.93 72.73 52.93C72.73 39.84 72.73 26.82 72.73 13.73C69.7 13.73 66.74 13.73 63.63 13.73ZM61.15 9.34C61.15 7.42 61.15 5.58 61.15 3.75C61.15 2.47 61.07 2.39 59.8 2.39C46.54 2.39 33.29 2.39 20.04 2.39C19.8 2.39 19.56 2.31 19.32 2.39C19.08 2.55 18.68 2.79 18.68 3.03C18.6 5.1 18.68 7.18 18.68 9.34C32.89 9.34 46.94 9.34 61.15 9.34ZM7.02 74.09C7.98 74.09 9.18 73.37 9.97 72.09C13.01 66.82 16.12 61.47 19.16 56.2C19.64 55.4 19.48 54.93 18.68 54.45C17.08 53.49 15.48 52.61 13.89 51.65C13.09 51.17 12.53 51.33 12.05 52.13C11.25 53.57 10.45 54.93 9.58 56.36C7.34 60.19 5.1 64.11 2.87 67.94C1.35 70.73 3.27 74.09 7.02 74.09ZM7.34 55.48C7.1 55.48 7.02 55.4 6.94 55.4C5.26 55.32 4.71 54.77 4.71 53.09C4.71 39.84 4.71 26.66 4.71 13.41C4.71 12.05 5.34 11.33 6.78 11.33C9.66 11.33 12.53 11.33 15.4 11.33C15.64 11.33 15.96 11.33 16.2 11.33C16.2 10.53 16.2 9.82 16.2 9.02C15.88 9.02 15.56 9.02 15.32 9.02C12.37 9.02 9.42 9.02 6.46 9.02C3.75 9.02 2.39 10.37 2.39 13.17C2.39 27.46 2.39 41.67 2.39 55.96C2.39 56.2 2.39 56.44 2.39 56.68C2.47 58.28 3.51 59.56 4.95 59.88C5.66 58.44 6.46 57 7.34 55.48ZM29.3 77.44C36.4 77.44 43.43 77.44 50.53 77.44C50.21 76.32 49.9 75.2 49.58 74.09C49.34 73.21 49.34 72.01 48.78 71.61C48.14 71.13 47.02 71.45 46.06 71.45C41.27 71.45 36.48 71.45 31.61 71.45C31.37 71.45 30.89 71.61 30.81 71.85C30.33 73.61 29.86 75.52 29.3 77.44ZM45.1 68.98C44.79 66.74 44.55 64.67 44.23 62.51C41.27 62.51 38.4 62.51 35.52 62.51C35.2 64.67 34.97 66.82 34.65 68.98C38.24 68.98 41.59 68.98 45.1 68.98ZM17.56 47.02C17 48.06 16.44 49.02 15.8 50.05C16.92 50.69 17.96 51.25 19 51.89C19.64 50.85 20.19 49.9 20.75 48.86C19.72 48.22 18.68 47.66 17.56 47.02Z" fill="#145656" fill-opacity="1.000000" fill-rule="nonzero"/>
</svg>
