<svg width="60.000000" height="60.000000" viewBox="0 0 60 60" fill="none" xmlns="http://www.w3.org/2000/svg" xmlns:xlink="http://www.w3.org/1999/xlink">
	<desc>
			Created with Pixso.
	</desc>
	<defs/>
	<rect id="Rectangle 1699" rx="30.000000" width="60.000000" height="60.000000" fill="#A68E67" fill-opacity="1.000000"/>
	<path id="Vector" d="M38.81 14.59L26.11 14.59C25.08 14.59 24.08 14.95 23.29 15.61L19.49 18.77C18.49 19.61 17.91 20.85 17.91 22.15L17.91 42.09C17.91 42.97 18.26 43.81 18.88 44.43C19.49 45.05 20.33 45.39 21.21 45.4L33 45.4C31.19 43.82 30.11 41.57 30.01 39.17C29.9 36.78 30.78 34.44 32.43 32.71C34.09 30.98 36.38 29.99 38.78 29.99C39.91 29.98 41.03 30.2 42.08 30.63L42.08 17.89C42.08 17.02 41.74 16.19 41.12 15.57C40.51 14.95 39.68 14.6 38.81 14.59L38.81 14.59ZM23.41 21.19L30.01 21.19L30.01 23.4L23.41 23.4L23.41 21.19ZM27.82 39.9L23.41 39.9L23.41 37.69L27.82 37.69L27.82 39.9ZM28.92 34.4L23.41 34.4L23.41 32.2L28.91 32.2L28.92 34.4ZM35.52 28.89L23.41 28.89L23.41 26.69L35.52 26.69L35.52 28.89Z" fill="#FFFFFF" fill-opacity="1.000000" fill-rule="evenodd"/>
	<path id="Vector" d="M38.81 32.2C37.06 32.2 35.38 32.9 34.15 34.14C32.91 35.37 32.22 37.05 32.22 38.81C32.22 40.56 32.92 42.24 34.16 43.47C35.4 44.71 37.08 45.41 38.83 45.4C40.58 45.4 42.26 44.71 43.49 43.47C44.73 42.23 45.43 40.55 45.43 38.8C45.43 37.05 44.73 35.36 43.49 34.12C42.25 32.88 40.57 32.19 38.81 32.2L38.81 32.2ZM37.78 36.73L39.85 36.73L39.85 40.87L37.78 40.87L37.78 36.73Z" fill="#FFFFFF" fill-opacity="1.000000" fill-rule="evenodd"/>
</svg>
